<?xml version="1.0" standalone="no"?>
<!DOCTYPE svg PUBLIC "-//W3C//DTD SVG 20010904//EN"
 "http://www.w3.org/TR/2001/REC-SVG-20010904/DTD/svg10.dtd">
<svg version="1.0" xmlns="http://www.w3.org/2000/svg"
 width="192.000000pt" height="192.000000pt" viewBox="0 0 192.000000 192.000000"
 preserveAspectRatio="xMidYMid meet">
<metadata>
Created by potrace 1.16, written by Peter Selinger 2001-2019
</metadata>
<g transform="translate(0.000000,192.000000) scale(0.100000,-0.100000)"
fill="#000000" stroke="none">
<path d="M7 1793 c-4 -3 -7 -19 -7 -34 l0 -27 183 -4 c260 -5 287 -22 308
-194 7 -59 8 -89 1 -92 -5 -1 -52 -30 -103 -64 -160 -106 -389 -351 -389 -417
0 -36 75 -141 100 -141 34 0 35 38 1 85 -17 24 -31 50 -31 57 0 8 36 58 80
110 80 96 187 193 290 262 l55 36 5 -32 c4 -27 9 -33 30 -33 23 0 25 5 30 50
l5 50 57 22 c110 44 170 56 313 60 126 4 150 2 240 -21 100 -26 274 -104 328
-148 27 -22 28 -28 30 -110 2 -90 11 -113 40 -102 14 5 17 20 17 77 l0 71 28
-25 c52 -48 59 -51 81 -39 33 17 25 35 -34 85 -30 26 -55 51 -55 55 0 22 56
71 92 81 37 10 42 8 67 -15 36 -35 98 -36 129 -3 33 35 31 109 -4 136 -39 31
-89 28 -124 -8 -19 -18 -43 -30 -70 -34 -52 -7 -114 -47 -135 -87 l-16 -31
-42 26 c-297 182 -616 214 -918 91 -13 -6 -17 3 -23 55 -3 34 -12 80 -18 103
-17 55 -91 131 -143 145 -43 12 -387 15 -398 4z"/>
<path d="M0 1625 l0 -35 168 2 167 3 0 30 0 30 -167 3 -168 2 0 -35z"/>
<path d="M886 1379 c-62 -10 -160 -59 -164 -82 -6 -30 27 -30 91 -1 83 38 205
40 282 6 114 -52 183 -126 216 -233 24 -78 24 -141 -1 -220 -84 -265 -419
-345 -609 -145 -61 65 -87 115 -102 199 -10 56 -10 76 5 134 9 37 30 90 47
117 33 54 34 81 4 81 -27 0 -81 -81 -101 -153 -12 -39 -15 -82 -12 -147 3 -79
8 -101 37 -159 62 -126 179 -213 321 -238 126 -22 264 25 361 121 245 246 111
665 -231 720 -72 12 -75 12 -144 0z"/>
<path d="M1746 1134 c-3 -9 -6 -17 -6 -18 0 -2 25 -34 55 -72 30 -38 55 -75
55 -83 0 -46 -210 -265 -341 -354 l-84 -58 -5 33 c-4 27 -9 33 -30 33 -23 0
-25 -4 -28 -48 -4 -55 -11 -60 -144 -102 -86 -27 -111 -48 -85 -74 16 -16 27
-14 126 18 l88 28 7 -60 c9 -90 26 -134 68 -182 59 -67 98 -76 314 -73 l179 3
3 31 3 32 -183 4 c-206 4 -246 15 -281 75 -22 38 -42 206 -25 212 5 2 51 30
100 63 167 112 388 350 388 418 0 18 -17 50 -47 90 -27 35 -54 71 -62 82 -17
22 -57 24 -65 2z"/>
<path d="M879 1097 c-80 -54 -102 -142 -54 -222 55 -94 197 -104 264 -19 63
80 39 204 -49 249 -44 23 -121 19 -161 -8z m152 -66 c54 -55 30 -150 -44 -169
-67 -18 -127 30 -127 100 0 89 107 132 171 69z"/>
<path d="M342 811 c-6 -3 -12 -37 -14 -75 l-3 -68 -67 62 c-52 47 -72 60 -88
55 -37 -12 -21 -42 61 -119 82 -75 82 -75 65 -101 -20 -31 -53 -53 -92 -61
-23 -4 -34 0 -53 20 -19 20 -34 26 -66 26 -57 0 -85 -30 -85 -91 0 -88 80
-118 155 -59 21 17 47 30 59 30 40 1 105 38 134 79 l29 40 38 -26 c66 -45 217
-111 305 -133 111 -29 300 -39 318 -18 16 20 5 47 -22 53 -11 2 -68 6 -126 8
-153 7 -340 73 -464 164 l-39 28 2 66 c3 99 -13 141 -47 120z"/>
<path d="M1636 312 c-4 -11 -4 -27 0 -36 6 -15 23 -16 143 -14 l136 3 0 30 0
30 -137 3 c-126 2 -137 1 -142 -16z"/>
</g>
</svg>
